<svg xmlns="http://www.w3.org/2000/svg" viewBox="0 0 786 585.429"><defs><linearGradient id="linear-gradient" x1="-113.645" y1="226.291" x2="-113.645" y2="237.61" gradientTransform="rotate(2.791 529.325 7236.839)" gradientUnits="userSpaceOnUse"><stop offset="0" stop-color="#c79993"/><stop offset="1" stop-color="#fdc3bb"/></linearGradient><linearGradient id="linear-gradient-2" x1="-494.444" y1="353.714" x2="-494.444" y2="367.018" gradientTransform="translate(643.712)" gradientUnits="userSpaceOnUse"><stop offset="0" stop-color="#d8aaa4"/><stop offset=".273" stop-color="#e7bab3"/><stop offset=".615" stop-color="#ffd4cc"/></linearGradient><linearGradient id="linear-gradient-3" x1="-1023.236" y1="331.646" x2="-1023.798" y2="349.929" gradientTransform="matrix(-1 0 0 1 -508.971 0)" gradientUnits="userSpaceOnUse"><stop offset="0" stop-color="#c79993"/><stop offset=".221" stop-color="#d7a59f"/><stop offset=".615" stop-color="#fdc3bb"/></linearGradient><style>.cls-2{fill:#9887c6}.cls-3{fill:#d2d3db}.cls-4{fill:#fff}.cls-5{fill:#b9b0d6}.cls-6{fill:#ebf1f5}.cls-7{fill:#86adcd}.cls-8{fill:#2b2146}.cls-9{fill:#412f69}.cls-10{fill:#56408b}.cls-11{fill:#afe8e8}.cls-12{fill:#e0f7fa}.cls-13{fill:#e8edef}.cls-14{fill:#0f1928}.cls-15{fill:#117dbf}.cls-16{fill:#cadce5}.cls-17{fill:#03304c}.cls-18{fill:#005094}.cls-19{fill:#4fa9ed}.cls-20{fill:#e4efef}.cls-21{fill:#ffcc57}.cls-22{fill:#ffb100}.cls-23{fill:#ffef00}.cls-24{fill:#2a4671}.cls-25{fill:#066696}.cls-26{fill:#fdc3bb}.cls-27{fill:#4c85b4}.cls-29{fill:#120a5a}.cls-30{fill:#456990}.cls-31{fill:#ffe2de}.cls-35{fill:#ee0027}.cls-36{fill:#edf3f7}.cls-41{fill:#627c8c}.cls-42{fill:#1b2d49}.cls-45{fill:#3b5b6f}.cls-46{fill:#aa2d45}</style></defs><g id="Layer_2" data-name="Layer 2"><g id="Layer_27" data-name="Layer 27"><path d="M720.727 380.386H118.292a11.25 11.25 0 00-11.218 11.22 11.25 11.25 0 0011.218 11.22h602.435a11.253 11.253 0 0011.22-11.22 11.253 11.253 0 00-11.22-11.22z" fill="#e1e4e5"/><path class="cls-2" d="M237.137 271.957h58.327V80.524h-25.925l-32.402 24.047v167.386z"/><path class="cls-3" d="M228.137 271.957h58.329V80.524H260.54l-32.403 24.047v167.386z"/><path class="cls-4" d="M232.11 113.792h50.385v5.353H232.11zM232.11 122.206h50.385v5.354H232.11zM232.11 130.622h50.385v5.355H232.11zM232.11 139.038h50.385v5.355H232.11zM232.11 147.454h50.385v5.355H232.11zM232.11 155.872h50.385v5.354H232.11zM232.11 164.288h50.385v5.353H232.11zM232.11 172.704h50.385v5.353H232.11zM232.11 181.12h50.385v5.354H232.11zM232.11 189.536h50.385v5.354H232.11zM232.11 197.953h50.385v5.353H232.11zM232.11 206.369h50.385v5.353H232.11zM232.11 214.784h50.385v5.354H232.11zM232.11 223.2h50.385v5.353H232.11zM232.11 231.616h50.385v5.354H232.11zM232.11 240.032h50.385v5.354H232.11zM232.11 248.449h50.385v5.353H232.11zM232.11 256.865h50.385v5.353H232.11zM277.072 86.536h5.418v20.995h-5.418zM269.524 86.536h5.428v20.995h-5.428zM261.985 86.536h5.418v20.995h-5.418zM254.437 90.4v17.131h5.426V86.536h-.214l-5.212 3.864zM246.895 95.999v11.532h5.42V91.98l-5.42 4.019zM239.347 101.598v5.933h5.427v-9.96l-5.427 4.027zM232.434 106.735v.796h4.79v-4.353l-4.79 3.557z"/><path class="cls-5" d="M449.087 10.066h42.093v251.308h-42.093z"/><path class="cls-6" d="M442.89 10.066h42.093v251.308H442.89z"/><path class="cls-5" d="M607.44 29.407h71.842v277.976H607.44z"/><path class="cls-6" d="M596.861 29.407h71.844v277.976h-71.844z"/><path class="cls-7" d="M178.417 380.386h62.369V127.933l-62.369 48.65v203.803z"/><path class="cls-4" d="M227.225 145.657v234.729h-5.859V150.079l5.859-4.422zM216.831 153.502v226.884h-5.86V157.925l5.86-4.423zM237.62 137.811v242.575h-5.86V142.232l5.86-4.421zM185.646 177.041v203.345h-5.859V181.464l5.859-4.423zM206.436 161.348v219.038h-5.86V165.771l5.86-4.423zM196.041 169.193v211.193h-5.859v-206.77l5.859-4.423z"/><path class="cls-5" d="M363.115 242.58h73.913V0h-32.851l-41.062 30.47v212.11z"/><path class="cls-6" d="M351.714 242.58h73.914V0h-32.852l-41.062 30.47v212.11z"/><path class="cls-3" d="M709.083 146.815v233.571h-58.334V113.26h25.924l32.41 33.555z"/><path class="cls-2" d="M316.035 46.152h55.377v311.781h-55.377z"/><path class="cls-3" d="M307.882 46.152h55.377v311.781h-55.377z"/><path class="cls-4" d="M311.654 63.326h47.835V73.3h-47.835zM311.654 79.004h47.835v9.973h-47.835zM311.654 94.68h47.835v9.971h-47.835zM311.654 110.355h47.835v9.974h-47.835zM311.654 126.033h47.835v9.973h-47.835zM311.654 141.709h47.835v9.971h-47.835zM311.654 157.384h47.835v9.974h-47.835zM311.654 173.061h47.835v9.971h-47.835zM311.654 188.736h47.835v9.973h-47.835zM311.654 204.413h47.835v9.974h-47.835zM311.654 220.09h47.835v9.971h-47.835zM311.654 235.765h47.835v9.973h-47.835zM311.654 251.441h47.835v9.974h-47.835zM311.654 267.116h47.835v9.973h-47.835zM311.654 282.793h47.835v9.974h-47.835zM311.654 298.47h47.835v9.971h-47.835zM311.654 314.145h47.835v9.973h-47.835zM311.654 329.821h47.835v9.973h-47.835z"/><path class="cls-2" d="M461.734 29.407h71.341v251.308h-71.341z"/><path class="cls-3" d="M451.233 29.407h71.341v251.308h-71.341z"/><path class="cls-4" d="M456.089 43.251h61.626v8.039h-61.626zM456.089 55.888h61.626v8.039h-61.626zM456.089 68.523h61.626v8.037h-61.626zM456.089 81.159h61.626v8.037h-61.626zM456.089 93.793h61.626v8.039h-61.626zM456.089 106.43h61.626v8.039h-61.626zM456.089 119.065h61.626v8.037h-61.626zM456.089 131.701h61.626v8.037h-61.626zM456.089 144.336h61.626v8.037h-61.626zM456.089 156.973h61.626v8.037h-61.626zM456.089 169.607h61.626v8.04h-61.626zM456.089 182.243h61.626v8.039h-61.626zM456.089 194.88h61.626v8.039h-61.626zM456.089 207.512h61.626v8.04h-61.626zM456.089 220.149h61.626v8.039h-61.626zM456.089 232.784h61.626v8.04h-61.626zM456.089 245.42h61.626v8.039h-61.626zM456.089 258.057h61.626v8.039h-61.626z"/><path class="cls-7" d="M344.349 380.386h-87.975V114.993l87.975 51.142v214.251z"/><path class="cls-4" d="M274.236 133.624v246.762h8.264V138.272l-8.264-4.648zM288.897 141.872v238.514h8.264V146.523l-8.264-4.651zM259.572 125.377v255.009h8.264V130.025l-8.264-4.648zM332.885 166.616v213.77h8.264V171.267l-8.264-4.651zM303.56 150.121v230.265h8.264V154.77l-8.264-4.649zM318.224 158.368v222.018h8.264V163.018l-8.264-4.65z"/><path class="cls-8" d="M562.772 11.695h-23.993l87.975 71.05v297.641h23.994V82.745l-87.976-71.05z"/><path class="cls-9" d="M626.754 380.386h-87.975V11.695l87.975 71.05v297.641z"/><path class="cls-10" d="M556.64 37.58v342.806h8.266V44.038l-8.266-6.458zM571.303 49.038v331.348h8.264V55.496l-8.264-6.458zM541.978 26.121v354.265h8.264V32.581l-8.264-6.46zM615.29 83.414v296.972h8.265V89.872l-8.265-6.458zM585.965 60.497v319.889h8.264V66.955l-8.264-6.458zM600.629 71.957v308.429h8.264V78.415l-8.264-6.458z"/><path class="cls-8" d="M394.373 68.606h108.644v311.779H394.373z"/><path class="cls-9" d="M378.376 68.606H487.02v311.779H378.376z"/><path class="cls-10" d="M385.775 85.78h93.849v9.974h-93.849zM385.775 101.457h93.849v9.971h-93.849zM385.775 117.132h93.849v9.973h-93.849z"/><path class="cls-4" d="M385.775 132.808h93.849v9.974h-93.849zM385.775 148.486h93.849v9.971h-93.849zM385.775 164.161h93.849v9.973h-93.849zM385.775 179.839h93.849v9.971h-93.849zM385.775 195.515h93.849v9.971h-93.849zM385.775 211.19h93.849v9.974h-93.849zM385.775 226.867h93.849v9.971h-93.849zM385.775 242.542h93.849v9.973h-93.849zM385.775 258.219h93.849v9.974h-93.849zM385.775 273.896h93.849v9.971h-93.849zM385.775 289.57h93.849v9.971h-93.849zM385.775 305.247h93.849v9.971h-93.849z"/><path class="cls-10" d="M385.775 320.922h93.849v9.973h-93.849zM385.775 336.599h93.849v9.974h-93.849zM385.775 352.276h93.849v9.971h-93.849z"/><path class="cls-8" d="M560.038 380.386h-88.97V88.395h39.543l49.427 36.674v255.317z"/><path class="cls-9" d="M546.937 380.386h-88.969V88.395h39.546l49.423 36.674v255.317z"/><path class="cls-10" d="M464.028 139.134h76.852v8.167h-76.852zM464.028 151.971h76.852v8.167h-76.852zM464.028 164.808h76.852v8.168h-76.852zM464.028 177.647h76.852v8.167h-76.852zM464.028 190.484h76.852v8.165h-76.852zM464.028 203.321h76.852v8.165h-76.852zM464.028 216.157h76.852v8.168h-76.852zM464.028 228.996h76.852v8.165h-76.852zM464.028 241.832h76.852v8.167h-76.852zM464.028 254.669h76.852v8.167h-76.852zM464.028 267.506h76.852v8.168h-76.852zM464.028 280.345h76.852v8.167h-76.852zM464.028 293.182h76.852v8.165h-76.852zM464.028 306.016h76.852v8.168h-76.852zM464.028 318.856h76.852v8.165h-76.852zM464.028 331.692h76.852v8.167h-76.852zM464.028 344.529h76.852v8.167h-76.852zM464.028 357.366h76.852v8.168h-76.852zM464.033 97.562h8.264v32.026h-8.264zM475.534 97.562h8.28v32.026h-8.28zM487.047 97.562h8.266v32.026h-8.266zM506.825 103.455v26.134h-8.277V97.562h.326l7.951 5.893zM518.327 111.997v17.592h-8.266v-23.723l8.266 6.131zM529.839 120.537v9.052h-8.276v-15.195l8.276 6.143zM540.385 128.371v1.218h-7.309v-6.642l7.309 5.424z"/><path class="cls-8" d="M692.381 380.386h-88.97V179.013h39.546l49.424 25.295v176.078z"/><path class="cls-9" d="M679.282 380.386h-88.968V179.013h39.543l49.425 25.295v176.078z"/><path class="cls-11" d="M596.861 185.339h7.781v22.086h-7.781zM607.878 185.339h8.277v22.086h-8.277zM619.391 185.339h8.266v22.086h-8.266zM631.22 185.339l7.951 4.064v18.022h-8.28v-22.086h.329zM642.406 191.065l8.267 4.227v12.133h-8.267v-16.36zM653.906 196.946l8.28 4.236v6.243h-8.28v-10.479zM672.729 206.583v.842h-7.309v-4.582l7.309 3.74z"/><path class="cls-4" d="M596.371 214.008h76.854v5.631h-76.854zM596.371 222.86h76.854v5.634h-76.854zM596.371 231.715h76.854v5.631h-76.854zM596.371 240.568h76.854v5.631h-76.854zM596.371 249.42h76.854v5.631h-76.854zM596.371 258.274h76.854v5.631h-76.854zM596.371 267.126h76.854v5.632h-76.854zM596.371 275.979h76.854v5.632h-76.854zM596.371 284.833h76.854v5.632h-76.854z"/><path class="cls-10" d="M596.371 293.686h76.854v5.631h-76.854zM596.371 302.54h76.854v5.631h-76.854zM596.371 311.392h76.854v5.632h-76.854zM596.371 320.246h76.854v5.631h-76.854zM596.371 329.097h76.854v5.631h-76.854zM596.371 337.952h76.854v5.631h-76.854zM596.371 346.804h76.854v5.631h-76.854zM596.371 355.657h76.854v5.632h-76.854zM596.371 364.51h76.854v5.632h-76.854z"/><path class="cls-4" d="M596.377 185.339h8.266v22.086h-8.266zM607.878 185.339h8.277v22.086h-8.277zM619.391 185.339h8.266v22.086h-8.266zM639.171 189.403v18.022h-8.28v-22.086h.329l7.951 4.064zM650.673 195.292v12.133h-8.267v-16.36l8.267 4.227zM662.186 201.182v6.243h-8.28v-10.479l8.28 4.236zM672.729 206.583v.842h-7.309v-4.582l7.309 3.74z"/><path class="cls-8" d="M228.959 179.36h87.975v201.026h-87.975z"/><path class="cls-9" d="M212.962 179.36h87.975v201.026h-87.975z"/><path class="cls-12" transform="rotate(90 256.951 193.756)" d="M252.153 157.767h9.597v71.979h-9.597z"/><path class="cls-12" transform="rotate(90 256.951 212.951)" d="M252.153 176.962h9.597v71.979h-9.597z"/><path class="cls-12" transform="rotate(90 256.951 232.146)" d="M252.153 196.157h9.597v71.979h-9.597z"/><path class="cls-12" transform="rotate(90 256.951 251.341)" d="M252.153 215.352h9.597v71.979h-9.597z"/><path class="cls-12" transform="rotate(90 256.951 270.536)" d="M252.154 234.546h9.595v71.979h-9.595z"/><path class="cls-12" transform="rotate(90 256.951 289.73)" d="M252.152 253.74h9.598v71.979h-9.598z"/><path class="cls-12" transform="rotate(90 256.951 308.924)" d="M252.152 272.935h9.598v71.979h-9.598z"/><path class="cls-10" transform="rotate(90 256.951 328.12)" d="M252.152 292.13h9.598v71.979h-9.598z"/><path class="cls-10" transform="rotate(90 256.951 347.314)" d="M252.153 311.324h9.597v71.979h-9.597z"/><path class="cls-10" transform="rotate(90 256.951 366.509)" d="M252.153 330.519h9.597v71.979h-9.597z"/><path class="cls-8" d="M136.856 219.226h66.998v161.16h-66.998z"/><path class="cls-9" d="M128.859 219.226h58.998v161.16h-58.998z"/><path class="cls-10" transform="rotate(90 158.358 230.766)" d="M154.51 206.63h7.695v48.272h-7.695z"/><path class="cls-10" transform="rotate(90 158.358 246.154)" d="M154.51 222.018h7.695v48.272h-7.695z"/><path class="cls-10" transform="rotate(90 158.358 261.543)" d="M154.51 237.407h7.696v48.272h-7.696z"/><path class="cls-10" transform="rotate(90 158.358 276.931)" d="M154.51 252.795h7.696v48.272h-7.696z"/><path class="cls-10" transform="rotate(90 158.358 292.32)" d="M154.51 268.184h7.695v48.272h-7.695z"/><path class="cls-10" transform="rotate(90 158.358 307.708)" d="M154.51 283.572h7.695v48.272h-7.695z"/><path class="cls-10" transform="rotate(90 158.358 323.096)" d="M154.51 298.96h7.695v48.272h-7.695z"/><path class="cls-10" transform="rotate(90 158.358 338.484)" d="M154.51 314.348h7.695v48.272h-7.695z"/><path class="cls-10" transform="rotate(90 158.358 353.872)" d="M154.51 329.736h7.695v48.272h-7.695z"/><path class="cls-10" transform="rotate(90 158.358 369.26)" d="M154.51 345.124h7.695v48.272h-7.695z"/><path class="cls-8" d="M342.06 138.334h105.93v242.052H342.06z"/><path class="cls-9" d="M326.063 138.334h105.931v242.052H326.063z"/><path class="cls-12" transform="rotate(90 379.029 155.667)" d="M373.251 112.332h11.555v86.671h-11.555z"/><path class="cls-12" transform="rotate(90 379.029 178.78)" d="M373.251 135.444h11.556v86.671h-11.556z"/><path class="cls-12" transform="rotate(90 379.029 201.89)" d="M373.251 158.556h11.555v86.671h-11.555z"/><path class="cls-12" transform="rotate(90 379.029 225.004)" d="M373.251 181.668h11.556v86.671h-11.556z"/><path class="cls-12" transform="rotate(90 379.029 248.116)" d="M373.25 204.781h11.557v86.671H373.25z"/><path class="cls-12" transform="rotate(90 379.029 271.228)" d="M373.251 227.892h11.556v86.671h-11.556z"/><path class="cls-12" transform="rotate(90 379.029 294.34)" d="M373.251 251.005h11.555v86.671h-11.555z"/><path class="cls-10" transform="rotate(90 379.029 317.452)" d="M373.251 274.116h11.556v86.671h-11.556z"/><path class="cls-10" transform="rotate(90 379.029 340.564)" d="M373.251 297.229h11.555V383.9h-11.555z"/><path class="cls-10" transform="rotate(90 379.029 363.676)" d="M373.25 320.341h11.557v86.671H373.25z"/><path class="cls-13" d="M367.551 486.796h-73.624a5.466 5.466 0 01-5.449-5.45 5.465 5.465 0 015.449-5.449h73.624a5.464 5.464 0 015.45 5.449 5.465 5.465 0 01-5.45 5.45z"/><path class="cls-14" d="M327.234 232.934h14.665v238.565h-14.665z"/><path class="cls-15" d="M183.508 147.678h302.12v171.219h-302.12zM175.638 131.708H493.5v12.325H175.638z"/><path class="cls-16" d="M321.671 232.934h14.665v238.565h-14.665z"/><path class="cls-17" d="M299.629 461.404h68.468v19.941h-68.468z"/><path class="cls-18" d="M294.771 461.404h68.47v19.941h-68.47z"/><path class="cls-15" transform="rotate(90 189.412 128.265)" d="M174.343 126.099h30.138v4.332h-30.138z"/><path class="cls-19" d="M174.344 108.644h30.137v20.745h-30.137z"/><path class="cls-4" transform="rotate(90 189.414 119.017)" d="M180.856 105.764h17.115v26.505h-17.115z"/><path class="cls-15" d="M174.344 103.223h30.137v4.333h-30.137z"/><path class="cls-15" transform="rotate(90 259.023 128.265)" d="M243.954 126.099h30.138v4.332h-30.138z"/><path class="cls-19" d="M243.954 108.644h30.137v20.745h-30.137z"/><path class="cls-4" transform="rotate(90 259.023 119.017)" d="M250.465 105.764h17.115v26.505h-17.115z"/><path class="cls-15" d="M243.954 103.223h30.137v4.333h-30.137z"/><path class="cls-15" transform="rotate(90 328.633 128.265)" d="M313.564 126.099h30.138v4.332h-30.138z"/><path class="cls-19" d="M313.563 108.644h30.138v20.745h-30.138z"/><path class="cls-4" transform="rotate(90 328.632 119.017)" d="M320.074 105.764h17.115v26.505h-17.115z"/><path class="cls-15" d="M313.563 103.223h30.138v4.333h-30.138z"/><path class="cls-15" transform="rotate(90 398.242 128.265)" d="M383.173 126.099h30.138v4.332h-30.138z"/><path class="cls-19" d="M383.173 108.644h30.138v20.745h-30.138z"/><path class="cls-4" transform="rotate(90 398.242 119.017)" d="M389.685 105.763H406.8v26.508h-17.115z"/><path class="cls-15" d="M383.173 103.223h30.138v4.333h-30.138z"/><path class="cls-15" transform="rotate(90 467.852 128.265)" d="M452.783 126.099h30.138v4.332h-30.138z"/><path class="cls-19" d="M452.782 108.644h30.138v20.745h-30.138z"/><path class="cls-4" transform="rotate(90 467.852 119.017)" d="M459.295 105.763h17.115v26.508h-17.115z"/><path class="cls-15" d="M452.782 103.223h30.138v4.333h-30.138zM187.217 140.893h4.553v15.931h-4.553zM256.747 140.893h4.552v15.931h-4.552zM326.273 140.893h4.555v15.931h-4.555zM395.804 140.893h4.553v15.931h-4.553zM465.331 140.893h4.555v15.931h-4.555z"/><path class="cls-20" d="M177.946 147.678h302.119v171.219H177.946z"/><path class="cls-21" transform="rotate(90 329.005 233.289)" d="M252.668 91.5h152.676v283.577H252.668z"/><path class="cls-4" d="M187.213 156.951h283.585v152.676H187.213z"/><path class="cls-18" d="M470.798 232.36v77.267H187.213V156.95h51.659c36.862 31.075 26.96 82.308 62.21 105.06 46.614 30.13 114.701-26.701 169.716-29.65z"/><path class="cls-22" d="M470.798 238.499v71.128H187.213V156.95h43.574c36.843 34.321 27.276 89.262 63.953 113.904 48.32 32.486 118.522-27.034 176.058-32.356z"/><path class="cls-23" d="M470.798 245.23v64.397H187.213V156.95h26.867c39.514 37.084 29.224 96.604 68.44 123.268 51.696 35.193 126.773-29.37 188.278-34.99z"/><path class="cls-19" d="M170.075 131.708h317.862v12.325H170.075z"/><path class="cls-13" d="M272.02 487.927h-90.768a5.467 5.467 0 01-5.45-5.452 5.465 5.465 0 015.45-5.449h90.767a5.464 5.464 0 015.45 5.45 5.466 5.466 0 01-5.45 5.45z"/><path class="cls-24" d="M248.496 350.655h-41.871l-.722-4.096h41.871l.722 4.096zM251.088 365.346h-41.873l-.722-4.098h41.871l.724 4.098zM253.678 380.038h-41.873l-.723-4.098h41.873l.723 4.098zM256.268 394.728h-41.871l-.725-4.098h41.873l.723 4.098zM258.859 409.417h-41.872l-.723-4.098h41.871l.724 4.098zM261.449 424.109h-41.873l-.722-4.098h41.871l.724 4.098zM264.039 438.799h-41.873l-.722-4.098h41.872l.723 4.098zM266.629 453.49h-41.871l-.724-4.098h41.872l.723 4.098zM269.22 468.179h-41.872l-.723-4.097h41.871l.724 4.097z"/><path class="cls-24" d="M235.7 482.871h-5.762l-24.035-136.312h5.762L235.7 482.871zM271.81 482.871h-5.763l-24.034-136.312h5.761l24.036 136.312z"/><path class="cls-19" d="M247.075 350.655h-41.873l.724-4.096h41.871l-.722 4.096zM244.485 365.346h-41.873l.723-4.098h41.872l-.722 4.098zM241.895 380.038h-41.873l.723-4.098h41.872l-.722 4.098zM239.303 394.728h-41.871l.723-4.098h41.872l-.724 4.098zM236.713 409.417h-41.872l.724-4.098h41.871l-.723 4.098zM234.123 424.109h-41.872l.723-4.098h41.872l-.723 4.098zM231.532 438.799h-41.871l.723-4.098h41.872l-.724 4.098zM228.942 453.49h-41.871l.723-4.098h41.871l-.723 4.098zM226.352 468.179H184.48l.724-4.097h41.871l-.723 4.097z"/><path class="cls-15" d="M187.653 482.871h-5.763l24.036-136.312h5.761l-24.034 136.312zM223.762 482.871H218l24.035-136.312h5.762l-24.035 136.312z"/><path class="cls-25" d="M205.926 343.257h41.871v3.302h-41.871z"/><path class="cls-9" d="M236.687 216.372c-6.267 18.509-32.855 26.676-36.903 21.94-2.016-2.359 3.822-11.655 15.502-30.243 11.459-18.238 13.944-19.174 15.607-18.893 5.333.904 9.725 15.59 5.794 27.196z"/><path class="cls-26" d="M285.012 199.787l-3.677 2.61c-.191.105.842 1.999.842 1.999a.4.4 0 00.542.157l3.775-2.074a.402.402 0 00.157-.544l-1.097-1.99a.399.399 0 00-.542-.158z"/><path class="cls-26" d="M288.344 200.955l-1.476 1.333c-.7.47-2.13.6-2.6-.1a1.54 1.54 0 01.414-2.132 9.069 9.069 0 014.268-1.022c.472.7.156 1.251-.606 1.921zM281.467 202.2l-2.678 1.262c-1.728.692-1.488 3.435.034 2.825 2.973-2.558 3.918-.973 3.86-2.89.002-1.186-.432-1.51-1.216-1.197z"/><path class="cls-27" d="M275.368 209.456c-1.809.886-10.445 5.129-13.649 6.692-2.544.812-4.09-1.186-3.299-3.92l19.361-8.748c1.433-.734 1.224-.744 2.093.624 1.745 2.745-.281 3.021-4.506 5.352z"/><path class="cls-27" d="M238.238 219.758c-1.601.239-5.941-6.028-4.536-6.808 1.239-.687 1.77-.364 6.472-.687.743.004 17.655-.309 18.33-.256 1.19 1.603 3.464 2.101 3.774 3.694-1.48 1.117-8.841 1.79-24.04 4.057z"/><path d="M227.986 214.598a2.859 2.859 0 01-2.709-2.99l.272-5.604a2.863 2.863 0 012.99-2.71 2.864 2.864 0 012.71 2.987l-.274 5.606a2.862 2.862 0 01-2.99 2.711z" fill="url(#linear-gradient)"/><path class="cls-29" d="M242.16 340.624l5.136 1.714a.688.688 0 01.501.794.335.335 0 01-.057.125l-3.244-.022-2.928-.02-2.731.017s-.489-.192-.428-.963a1.626 1.626 0 011.01-1.34 5.23 5.23 0 012.74-.305zM212.66 339.21l.983 2.275 2.707.69a.962.962 0 01-.296 1.074c-.05.039-4.027.008-4.027.008l-1.833-1.903-1.842-1.647s-.171-.484.483-1.191a1.938 1.938 0 011.745-.68c1.112.053 2.08 1.375 2.08 1.375z"/><path class="cls-30" d="M210.356 339.131c-1.967-.69-2.018-.284-1.412-2.279 0 0 6.008-31.222 12.365-39.916l1.6-42.157c.601-1.995 11.025-.29 13.016.308 1.994.604 1.677 4.205 1.072 6.2l-23.635 77.275c-.414 1.314-2.034.91-3.006.57z"/><path class="cls-27" d="M238.21 340.961c.394-21.78-5.315-35.45-1.932-44.873l-13.666-33.512c-1.047-2.383-2.906-10.321-.522-11.367 2.374-1.051 14.533 2.633 15.581 5.02.456 3.93 4.104 38.444 4.104 38.444l1.57 45.707c.031 1.156-4.869 1.628-5.135.581z"/><path class="cls-4" d="M239.756 260.438c-8.831-2.774-21.036 6.781-23.116.85-1.319-3.767 9.473-17.11 8.633-20.536l-8.633-19.679v-5.45l8.718-3.924c1.444 2.749 5.607 1.694 5.64-.281 1.112-.011 5.424 2.53 6.622 5.186a45.057 45.057 0 003.239 5.5c1.623 2.643-.627 5.132-1.55 7.426-3.949 9.808 1.639 31.283.447 30.908z"/><path class="cls-31" d="M269.738 221.319l-3.606 3.397-.176-.006-2-2.126.001-.04 3.676-3.462.04.001 2.066 2.195a.029.029 0 010 .041z"/><path class="cls-31" d="M269.33 217.956l-1.668 1.083c-.636.556-1.13 1.902-.572 2.54a1.541 1.541 0 002.167.149 9.053 9.053 0 002.085-3.861c-.554-.637-1.168-.472-2.012.089zM265.231 224.54l-3.063 1.35c-1.656.85-3.078-1.853-1.618-2.603 3.724-.803 4.887-1.707 5.347-.814a1.54 1.54 0 01-.666 2.068z"/><path class="cls-27" d="M241.542 227.664l18.767-5.578c1.548-.472 1.822.369 2.296 1.917.473 1.574.876 2.643-.652 3.11-1.092.33-14.96 4.38-18.596 5.412-2.639.341-3.086-2.3-1.815-4.861z"/><path class="cls-27" d="M226.817 225.26c-1.355-.882-9.338-3.77-7.463-8.668.199-.518 1.576-2.382 6.054-.912.508.21 17.595 11.311 18.137 11.39.498 1.932-.948 3.806-1.262 5.4-.257-.06-4.53-.093-15.466-7.21z"/><path class="cls-31" d="M234.722 193.962c2.476 4.48 2.3 11.806.527 12.784-2.964 1.638-11.795-.859-14.27-5.34-2.478-4.48-.105-8.013 2.861-9.65 2.962-1.637 8.405-2.273 10.882 2.206z"/><path class="cls-10" d="M229.734 192.683c-3.54.853-5.7 5.546-6.406 8.729-1.93 8.703 5.666 12.21 4.038 20.087-1.092 5.278-5.486 8.47-9.601 11.459-4.143 3.01-11.68 8.486-17.942 5.553-5.726-2.68-8.494-11.504-6.528-17.939 2.658-8.706 12.163-7.064 17.201-17.805 2.866-6.108 1.391-9.821 5.68-13.793a14.879 14.879 0 0110.534-3.617c1.033.07 5.116.345 7.724 3.399 1.026 1.197 2.222 3.29 1.558 4.16-.816 1.067-3.456-.909-6.258-.233z"/><path class="cls-13" d="M104.259 512.638h-93.13a10.034 10.034 0 01-10.002-10.002 10.033 10.033 0 0110.002-10.002h93.13a10.032 10.032 0 0110.002 10.002 10.033 10.033 0 01-10.002 10.002z"/><path class="cls-15" d="M8.851 260.898h106.107a1.598 1.598 0 011.598 1.598v159.45a1.598 1.598 0 01-1.598 1.599H8.85a1.598 1.598 0 01-1.598-1.598V262.496a1.598 1.598 0 011.598-1.598z"/><rect class="cls-20" x="1.126" y="260.898" width="109.304" height="162.647" rx="1.598"/><rect class="cls-25" x="-19.982" y="293.132" width="151.522" height="98.178" rx="1.198" transform="rotate(90 55.778 342.221)"/><path class="cls-15" d="M25.667 240.956h68.471v19.941H25.667z"/><path class="cls-19" d="M21.831 240.956h68.47v19.941h-68.47z"/><path class="cls-4" transform="rotate(90 56.064 250.927)" d="M49.819 220.417h12.492v61.02H49.819z"/><path class="cls-14" d="M36.679 423.542h45.142v68.193H36.679z"/><path class="cls-16" d="M34.149 423.542h45.142v68.193H34.149z"/><path class="cls-17" d="M25.667 482.004h68.471v19.943H25.667z"/><path class="cls-18" d="M21.831 482.004h68.47v19.943h-68.47z"/><path class="cls-13" d="M126.527 506.024c0 2.702 9.322 4.893 20.824 4.893s20.827-2.191 20.827-4.893-9.325-4.891-20.827-4.891-20.824 2.19-20.824 4.891z"/><path class="cls-29" d="M144.204 505.265l-5.404 2.47a.753.753 0 00-.458.925.34.34 0 00.078.128l3.54-.4 3.192-.363 2.986-.3s.507-.266.354-1.1a1.787 1.787 0 00-1.258-1.344 5.758 5.758 0 00-3.03-.016z"/><path class="cls-29" d="M151.953 504.493l-5.539 2.158a.755.755 0 00-.507.897.369.369 0 00.07.133l3.556-.2 3.21-.18 2.996-.128s.524-.238.415-1.08a1.78 1.78 0 00-1.176-1.414 5.77 5.77 0 00-3.025-.186z"/><path class="cls-22" d="M156.438 504.096c-4.266-23.536-.487-39.352-5.815-48.97l10.135-40.083c.715-2.767-.34-8.991-3.107-9.704-2.761-.722-15.863 4.195-16.578 6.965.2 4.337 3.344 42.258 3.344 42.258l6.351 49.808c.173 1.259 5.564.907 5.67-.274z"/><path class="cls-23" d="M148.586 504.984c-2.83-23.751 1.904-39.31-2.828-49.233l12.549-39.391c.883-2.721-.957-10.349-3.675-11.23-2.71-.886-14.923 4.577-15.807 7.299-.063 4.34.772 42.38.772 42.38l3.314 50.104c.096 1.267 5.498 1.242 5.675.071zM118.907 349.738a3.145 3.145 0 014.417-.424l20.65 16.885c1.332 1.099-.782 2.902-1.88 4.233-2.889 3.5-6.91-.008-7.753-.703l-15.01-15.574a3.144 3.144 0 01-.424-4.417z"/><path class="cls-31" d="M115.499 323.113l1.426 2.037c.525.749 2.189 2.377 2.938 1.855a7.438 7.438 0 00-.316-3.505l-1.183-2.39a1.668 1.668 0 00-2.314-.41l-.14.098a1.669 1.669 0 00-.411 2.315z"/><path class="cls-31" d="M114.436 318.398l2.252.995c.9.337 1.965 1.574 1.628 2.475a1.752 1.752 0 01-2.25 1.023c-1.996-.746-5.199-5.332-5.199-5.332.337-.899 2.446.577 3.57.839z"/><path d="M119.753 324.06c1.726-.04 2.017.643 2.056 2.37l1.636 23.652a3.147 3.147 0 01-3.067 3.207 3.147 3.147 0 01-3.207-3.068l-.533-23.945c-.04-1.72 1.388-2.178 3.115-2.217z" fill="#fff563"/><path class="cls-4" d="M133.87 316.514L93.199 427.423a14.405 14.405 0 01-.722 1.651 16.694 16.694 0 01-20.69 8.273l-60.844-22.311a16.716 16.716 0 01-9.923-21.414L41.693 282.71a16.7 16.7 0 0121.412-9.92l60.842 22.31a16.702 16.702 0 019.924 21.414z"/><path class="cls-18" d="M97.464 415.796l-4.265 11.627a14.405 14.405 0 01-.723 1.651 16.694 16.694 0 01-20.69 8.273l-60.844-22.311a16.716 16.716 0 01-9.923-21.414L41.693 282.71a16.7 16.7 0 0121.412-9.92l29.245 10.724c-16.128 25.943-59.086 47.653-49.302 77.47 7.589 23.143 40.22 30.508 54.416 54.812z"/><path class="cls-22" d="M95.816 420.287l-2.617 7.136a14.405 14.405 0 01-.723 1.651 16.694 16.694 0 01-20.69 8.273l-60.844-22.311a16.716 16.716 0 01-9.923-21.414L41.693 282.71a16.7 16.7 0 0121.412-9.92l25.017 9.174c-17.925 26.744-63.006 49.02-52.057 80.29 8.531 24.4 43.602 32.755 59.751 58.033z"/><path class="cls-23" d="M92.476 429.074a16.694 16.694 0 01-20.69 8.273l-60.844-22.311a16.716 16.716 0 01-9.923-21.414L41.693 282.71a16.7 16.7 0 0121.412-9.92l20.662 7.577c-19.008 28.737-68.21 52.445-56.177 86.146 9.33 26.211 47.405 35.258 64.886 62.561z"/><path fill="#ffd4cc" d="M145.769 362.835l-7.15 7.185h12.098l1.359-7.871-6.307.686z"/><path d="M148.991 367.018a3.242 3.242 0 01-3.248-3.193l.182-6.703a3.218 3.218 0 013.066-3.334c1.688 0 3.802-.541 3.802 1.293l-.734 8.602a3.219 3.219 0 01-3.068 3.335z" fill="url(#linear-gradient-2)"/><path class="cls-4" d="M152.19 362.149l2.098 3.134a16.861 16.861 0 011.15 11.805c-1.361 6.088-2.227 14.94-.935 19 3.422 10.745 11.24 14.44 4.623 21.887-2.198 2.473-8.051 4.21-13.022 3.568a10.78 10.78 0 01-9.147-12.934c1.386-6.607 3.191-19.331 2.012-24.887-.511-2.406-3.774-4.243-3.846-7.653-.074-3.41 2.792-4.511 3.496-6.049z"/><path class="cls-23" d="M129.284 392.43a3.147 3.147 0 01-.042-4.439l16.784-17.087c1.208-1.23 4.646-.998 5.877.21 3.238 3.181-.604 6.885-1.37 7.663L133.72 392.39a3.148 3.148 0 01-4.436.04z"/><path class="cls-31" d="M100.141 408.492c1.44-.183 6.215-2.755 5.94-4.772.105-.318.952-2.53-.98-2.356-2.123.19-3.471 2.429-3.471 2.429z"/><path class="cls-31" d="M105.434 401.034l3.201-2.066c1.707-1.255 3.792 1.526 2.288 2.632-4.042 1.572-5.185 2.797-5.86 1.878a1.754 1.754 0 01.371-2.444z"/><path class="cls-23" d="M106.077 401.465c-.7-1.578-.182-2.111 1.393-2.812l21.189-10.64a3.143 3.143 0 014.14 1.592 3.141 3.141 0 01-1.59 4.14l-21.883 9.737c-1.572.7-2.545-.44-3.249-2.017z"/><path class="cls-31" d="M103.47 403.556l-1.642-.86c-.27.039-2.838.838-3.228.132-.192-.35 3.5-1.308 3.77-1.347l2.72-.068c.269-.042-1.043.56-1.001.826.039.269-.351 1.277-.618 1.317zM159.144 346.368c-.028 2.965-2.316 5.58-4.641 8.243-2.365 2.711-8.344 4.455-10.324 4.214-1.728-.212-3.52-7.161-2.437-13.89.95-5.908 4.079-7.111 8.036-7.074 3.958.037 9.422 2.524 9.366 8.507z"/><path class="cls-31" d="M152.99 350.516c-.494.855-1.301 1.31-1.808 1.018-.504-.291-.515-1.22-.022-2.075.492-.853 1.303-1.309 1.807-1.018.507.293.517 1.222.022 2.075z"/><path class="cls-35" d="M184.903 357.283c-1.168 6.62-6.602 8.178-6.027 13.907.52 5.341 5.526 6.713 4.859 10.198-.816 4.359-9.773 8.363-16.448 5.786-6.785-2.651-10.068-11.645-8.807-18.301 1.594-8.585 10.55-12.442 8.807-17.152-.5-1.316-1.575-1.983-2.743-2.893a10.151 10.151 0 01-3.56 6.1c-2.745 2.134-7.084 2.708-8.27 1.187-1.057-1.334 1.15-3.207.278-5.599-1.039-2.836-4.84-2.17-8.455-5.34-2.374-2.077-5.007-6.1-3.95-9.27 1.335-3.932 7.937-5.23 12.534-4.396a14.604 14.604 0 019.624 6.638c2.67-1.724 7.62-1.724 11.255-.334 7.175 2.727 12.2 11.96 10.903 19.47z"/><path class="cls-13" d="M475.567 478.635c0 3.893 13.433 7.048 30.005 7.048 16.569 0 30.003-3.155 30.003-7.048s-13.434-7.049-30.003-7.049c-16.572 0-30.005 3.155-30.005 7.049z"/><path class="cls-29" d="M490.232 473.373l-8.523 3.523a1.314 1.314 0 00-.807 1.512.63.63 0 00.1.227l5.43-.247 4.898-.221 4.573-.142s.806-.389.672-1.824a2.936 2.936 0 00-1.743-2.431c-1.673-.993-4.6-.397-4.6-.397zM527.741 475.741c0 3.128-1.84 6.119-4.076 6.119-1.28 0-1.74-4.4-1.74-7.528 0-3.129 1.706-3.797 2.988-3.797 1.284 0 2.828 2.077 2.828 5.206z"/><path class="cls-30" d="M503.29 400.796l26.062.275v-9.3c0-2.423-2.774-1.791-5.197-1.791h-16.014c-2.424 0-2.235-2-2.235.424z"/><path class="cls-30" d="M528.908 475.925l-8.521.272-3.521-75.126 12.486-6.986-.444 81.84zM496.59 474.516l-9.275.068 17.676-81.389 10.753 6.237-19.154 75.084z"/><path class="cls-26" d="M463.245 328.804l2.539 4.352a2.821 2.821 0 003.814.58l.215-.158a2.552 2.552 0 00.408-3.677l-3.644-3.444c-.938-1.17-1.996-1.712-3.158-.862l-.214.158c-1.16.853-.898 1.882.04 3.05z"/><path class="cls-26" d="M459.835 324.008l-1.338-1.188 2.403-.793c1.049.309 2.501.861 3.043 1.813l1.777 1.774c.374.63-1.912 3.844-1.42 4.602-2.213-.104-2.497-2.234-4.465-6.208z"/><path class="cls-36" d="M482.848 351.753l20.387 4.496c2.38-.117 4.588-7.69 5.267-11.073.45-2.253-.408-3.25-2.791-3.136l-21.481.912-13.28-13.7c-1.58-1.812-2.55-1.055-4.346.39-1.795 1.444-2.896 2.235-1.317 4.05l13.912 16.178a5.772 5.772 0 003.65 1.883z"/><path class="cls-4" d="M509.145 341.258l4.137 4.144 6.819-4.144 14.59 5.52c0 2.716-2.676 15.722-6.599 28.86-2.062 6.91 4.129 15.563 1.26 17.557-2.714 1.885-18.26.724-23.977-.688-1.843-.457.062-4.797.688-7.514 1.035-4.48.482-12.944-.419-17.11-2.157-9.978-4.04-17.61-1.608-25.295z"/><path d="M511.502 346.021c-1.887 0-2.357-2.484-2.357-4.763l-.571-14.507c0-2.28 1.543-4.145 3.428-4.145h5.24c1.887 0 2.183 1.614 2.183 3.894l.676 14.758c0 3.336-5.913 4.763-8.599 4.763z" fill="url(#linear-gradient-3)"/><path class="cls-26" d="M505.852 335.42c-1.854-.821-2.057-2.949-1.132-5.033l3.815-14.384c.922-2.086 4.68-2.255 6.532-1.435l5.155 2.279a3.949 3.949 0 011.696 5.281l-6.428 13.02c-.922 2.084-9.638.271-9.638.271z"/><path class="cls-16" d="M507.645 312.321c5.205-5.227 23.932-2.761 20.782 7.32.122 1.379-6.47 15.078-8.112 14.75-1.313-.258.475-4.418-.994-6.211l-2.308.356c.181-1.208 3.374-2.517 2.308-5.93-.258-.829.842-3.442.842-3.442-2.658-.619-4.584-3.433-7.997-3.846-3.415-.414-6.122-1.387-4.521-2.997z"/><path class="cls-26" d="M520.687 327.956c-.64 1.06-1.633 1.636-2.216 1.283-.58-.352-.531-1.496.112-2.558.642-1.06 1.633-1.634 2.214-1.282.582.352.533 1.496-.11 2.557z"/><path d="M426.386 278.83l75.368 100.844a2.286 2.286 0 01-3.663 2.736l-75.368-100.843z" fill="#8a9da9"/><path d="M412.785 284.99l19.697-14.723a6.721 6.721 0 001.357-9.38 6.719 6.719 0 00-9.378-1.354l-19.699 14.722a6.72 6.72 0 00-1.356 9.379 6.722 6.722 0 009.38 1.356z" fill="#fede6e"/><path class="cls-22" d="M407.81 286.25c3.615.524 3.384-.078 24.67-15.985a6.705 6.705 0 00-3.052-11.99c-3.633-.524-3.446.123-24.66 15.98a6.5 6.5 0 00-1.99 2.38 6.707 6.707 0 005.032 9.615z"/><path class="cls-4" d="M408.4 282.162c3.617.523 3.386-.077 24.67-15.983a6.573 6.573 0 001.99-2.38 6.583 6.583 0 00-5.632-5.523c-3.633-.525-3.446.122-24.66 15.978a6.5 6.5 0 00-1.99 2.381 6.572 6.572 0 005.621 5.527z"/><path class="cls-30" transform="rotate(-36.809 433.472 275.174)" d="M421.037 273.861h24.87v2.627h-24.87z"/><path class="cls-30" d="M433.835 260.89a2.193 2.193 0 01.203.31l2.897-2.164-1.572-2.104-3.202 2.39a6.543 6.543 0 011.674 1.569z"/><path class="cls-30" transform="rotate(-36.777 438.738 263.643)" d="M437.425 256.246h2.627v14.794h-2.627z"/><path class="cls-26" d="M454.04 326.637a2.209 2.209 0 011.73-2.589l.888-.175a2.209 2.209 0 012.588 1.732 2.211 2.211 0 01-1.732 2.589l-.888.175a2.207 2.207 0 01-2.586-1.732zM479.349 350.51l2.548.559a2.971 2.971 0 011.326 3.978l-.123.245a2.975 2.975 0 01-3.98 1.326l-3.109-1.554c-1.459-.73-3.606-4.587-2.875-6.046 0 0 4.608 2.084 6.213 1.493z"/><path class="cls-26" d="M483.132 352.301l4.864 1.804c5.615 2.01 3.916 7.377 1.043 6.438-5.879-3.842-8.572-4.191-7.997-5.948a3.251 3.251 0 012.09-2.294z"/><path class="cls-36" d="M487.591 360.788l20.432 11.027a4.13 4.13 0 002.865-.347l19.538-12.934c2.033-1.049 6.993-6.709 4.896-11.293-.953-2.077-5.959-4.705-12.496 3.601l-14.368 12.564-18.927-8.948c-2.221-.535-2.076-1.259-3.898 2.277-1.041 2.022-.606 2.607 1.958 4.053z"/><path class="cls-26" d="M478.894 350.853c-.25.497 1.175 3.438 1.772 3.655 2.498.911 3.864-2.787 2.008-4.165-2.69-1.203-5.772-2.892-6.234-2.27-.745.899 2.97 1.75 2.454 2.78z"/><path class="cls-4" d="M509.776 304.817a5.554 5.554 0 014.323 2.087 5.407 5.407 0 01.855-.085 5.327 5.327 0 014.708 2.86c.08-.004.155-.024.234-.024a4.942 4.942 0 11-4.044 7.768 5.142 5.142 0 01-4.774-1.59 5.586 5.586 0 11-1.302-11.016z"/><path fill="#032f60" d="M738.052 162.651h10.644v281.606h-10.644z"/><path class="cls-24" d="M517.977 162.651h230.719v8.947H517.977z"/><path class="cls-25" d="M734.014 162.651h10.645v281.606h-10.645zM700.182 162.651h6.202v22.407h-6.202z"/><path class="cls-15" d="M697.831 162.651h6.202v22.407h-6.202z"/><path class="cls-25" d="M529.75 162.651h6.203v22.407h-6.203z"/><path class="cls-15" d="M527.399 162.651h6.202v22.407h-6.202z"/><path class="cls-19" d="M513.938 162.651H744.66v8.947H513.938z"/><path class="cls-15" d="M519.322 185.059h206.617v108.06H519.322z"/><path class="cls-20" d="M513.938 185.059h206.617v108.06H513.938z"/><path class="cls-4" transform="rotate(90 617.247 239.087)" d="M567.255 139.817h99.985v198.541h-99.985z"/><path class="cls-18" d="M716.518 238.48v50.6h-198.54v-99.986h36.165c25.807 20.352 18.877 53.904 43.554 68.804 32.636 19.73 80.304-17.488 118.82-19.418z"/><path class="cls-22" d="M716.518 242.5v46.58h-198.54v-99.986h30.506c25.794 22.477 19.095 58.457 44.772 74.594 33.83 21.275 82.978-17.704 123.262-21.187z"/><path class="cls-23" d="M716.518 246.908v42.172h-198.54v-99.986h18.81c27.662 24.287 20.458 63.265 47.914 80.728 36.193 23.046 88.754-19.236 131.816-22.914z"/><path class="cls-41" d="M700.117 298.93h33.897v4.098h-33.897zM700.117 313.619h28.135v4.098h-28.135zM700.117 328.309h28.135v4.098h-28.135zM700.117 343.001h28.135v4.098h-28.135zM700.117 357.691h28.135v4.097h-28.135zM700.117 372.381h28.135v4.098h-28.135zM700.117 387.072h28.135v4.098h-28.135zM700.117 401.763h28.135v4.098h-28.135zM700.117 416.455h28.135v4.095h-28.135zM700.117 431.144h28.135v4.098h-28.135z"/><path class="cls-41" d="M700.117 298.93h5.762v136.312h-5.762zM722.49 298.93h5.762v136.312h-5.762z"/><path class="cls-29" d="M709.29 387.79a2.893 2.893 0 01-2.884-2.884v-.968a2.893 2.893 0 012.885-2.885 2.893 2.893 0 012.884 2.885v.968a2.893 2.893 0 01-2.884 2.885zM718.935 387.79a2.892 2.892 0 01-2.884-2.884v-.968a2.892 2.892 0 012.884-2.885 2.893 2.893 0 012.884 2.885v.968a2.893 2.893 0 01-2.884 2.885z"/><path class="cls-18" d="M709.107 384.779c-2.139 0-3.732.153-3.732-1.987l-1.409-71.267c0-2.14 3.002-1.89 5.141-1.89a3.9 3.9 0 013.888 3.888v69.505c0 2.14-1.751 1.75-3.888 1.75zM718.787 384.779c-2.137 0-3.352.205-3.352-1.935l-.535-69.321a3.9 3.9 0 013.887-3.887c2.139 0 5.205.15 5.205 2.289l-1.325 70.867c0 2.14-1.741 1.987-3.88 1.987z"/><path class="cls-18" d="M718.832 316.36h-9.438a4.523 4.523 0 01-4.51-4.51 4.523 4.523 0 014.51-4.51h9.438a4.523 4.523 0 014.51 4.51 4.523 4.523 0 01-4.51 4.51z"/><path class="cls-26" d="M681.776 251.824l.997 1.521a2.072 2.072 0 002.919-.127l.13-.139a2.076 2.076 0 00-.128-2.921l-1.783-1.634c-.839-.768-4.07-1.462-4.107-.327-.033 1.032 1.96 2.438 1.972 3.627z"/><path class="cls-26" d="M683.881 253.842l2.382 2.715c2.702 3.153 5.771.713 4.447-.921-3.959-2.869-4.855-4.534-5.855-3.724a2.264 2.264 0 00-.974 1.93z"/><path class="cls-26" d="M681.887 251.443a4.448 4.448 0 012.817.246c1.215 1.398-.852 3.207-2.21 2.341-1.45-1.452-3.315-3.037-3.024-3.492.398-.708 1.874 1.498 2.417.905z"/><path class="cls-4" d="M685.139 257.648c-1.061-1.241-.844-2.028.257-3.298 1.213-1.396 2.41-2.297 3.805-1.084l14.53 12.632 17.195 1.72c1.829.29 3.4 4.155 3.864 5.948.54 2.086 2.008 2.885-.076 6.594 0 0-24.184-8.17-24.652-8.58 0 0-14.817-13.808-14.923-13.932z"/><path class="cls-35" d="M723.138 313.189c-5.746 1.306-10.713 2.438-19.154.306-4.066-1.028-7.268-30.519-4.412-38.25 1.453-3.936-1.382-7.16 2.812-7.16l17.696-.467c4.195 0 6.642 8.367 6.642 12.564 0 9.377-2.736 10.234-2.803 17.684-.08 8.857 5.12 13.984-.781 15.323z"/><path class="cls-26" d="M709.8 259.745h7.68a.293.293 0 01.292.293v10.027a.293.293 0 01-.292.293h-7.68a.293.293 0 01-.293-.293v-10.027a.293.293 0 01.293-.293z"/><path class="cls-26" d="M706.693 247.6h7.683a.293.293 0 01.293.293v16.187a.293.293 0 01-.293.293h-7.683a.293.293 0 01-.293-.293v-16.187a.293.293 0 01.293-.293z"/><path class="cls-24" d="M713.964 265.702c-2.913-.02-5.57-1.837-5.475-4.838.207-6.56-2.24-8.313-2.164-12.178.061-2.981 1.405-7.329 7.315-6.332 6.206 1.043 9.13 5.154 8.514 8.072-.604 3.463-2.246 8.09-2.85 11.55-.608 2.94-2.428 3.706-5.34 3.726z"/><path class="cls-26" d="M655.584 257.804l1.707.62a2.067 2.067 0 01.547 2.87l-.106.156a2.073 2.073 0 01-2.87.549l-2-1.359c-.94-.64-2.36-3.627-1.263-3.924.998-.269 2.822 1.348 3.985 1.088z"/><path class="cls-26" d="M658.03 259.388l3.19 1.693c3.69 1.908 2.022 5.456.127 4.541-3.704-3.193-5.53-3.684-4.97-4.843a2.267 2.267 0 011.652-1.39z"/><path class="cls-26" d="M655.239 258a4.448 4.448 0 00.885 2.685c1.64.86 2.926-1.567 1.77-2.69-1.746-1.078-3.718-2.528-4.092-2.14-.596.55 1.888 1.48 1.437 2.145z"/><path class="cls-4" d="M658.406 265.193c-1.313-.965-1.28-1.78-.495-3.266.866-1.635 1.827-2.785 3.463-1.92l17.01 9.024 19.482-1.312c1.846-.128 6.045 1.095 6.168 2.943.124 1.845.848 9.986-5.553 9.498 0 0-21.839-4.474-22.389-4.765 0 0-17.555-10.103-17.686-10.202z"/><path class="cls-13" d="M485.463 585.43H375.718c-5.01 0-9.106-3.121-9.106-6.934 0-3.814 4.096-6.933 9.106-6.933h109.745c5.008 0 9.108 3.12 9.108 6.933 0 3.813-4.1 6.933-9.108 6.933z"/><path class="cls-42" d="M463.742 449.534h-64.881l.927 5.263h64.883l-.929-5.263z"/><path class="cls-14" d="M428.168 579.251h-6.435l-5.395-30.602h6.434l5.396 30.602zM486.616 579.251h-6.434l-5.396-30.602h6.434l5.396 30.602z"/><path class="cls-16" d="M426.919 579.251h-6.433l-5.396-30.602h6.433l5.396 30.602zM484.544 579.251h-6.433l-5.396-30.602h6.434l5.395 30.602z"/><path class="cls-42" d="M482.023 553.202H417.14l-17.352-98.405h64.883l17.352 98.405z"/><path class="cls-18" d="M479.952 553.202h-64.883l-17.35-98.405h64.882l17.351 98.405z"/><path fill="#324c68" d="M461.672 449.534H396.79l.929 5.263h64.882l-.929-5.263z"/><path class="cls-14" d="M463.742 449.534h-64.881l-.929 5.263h64.883l.927-5.263zM383.243 579.251h-6.434l5.398-30.602h6.432l-5.396 30.602zM440.871 579.251h-6.434l5.395-30.602h6.435l-5.396 30.602z"/><path class="cls-16" d="M380.351 579.251h-6.435l5.396-30.602h6.435l-5.396 30.602zM438.799 579.251h-6.434l5.396-30.602h6.434l-5.396 30.602z"/><path fill="#feb728" d="M445.464 553.202h-64.883l17.351-98.405h64.883l-17.351 98.405z"/><path class="cls-21" d="M443.393 553.202H378.51l17.351-98.405h64.883l-17.351 98.405z"/><path class="cls-4" d="M456.573 458.347l-16.103 91.309h-57.788l16.099-91.309h57.792z"/><path class="cls-16" d="M461.672 449.534H396.79l-.929 5.263h64.883l.928-5.263z"/><path class="cls-18" d="M456.573 458.347l-3.784 21.449a22.515 22.515 0 00-15.136-4.513c-13.938.902-17.273 12.334-35.076 15.143a52.006 52.006 0 01-9.567.66l5.771-32.74z"/><path class="cls-22" d="M398.781 458.347h57.792l-3 17a22.52 22.52 0 00-15.136-4.504c-13.94.9-17.275 12.331-35.076 15.136a52.255 52.255 0 01-9.567.66z"/><path class="cls-23" d="M456.573 458.347l-2.217 12.558a22.502 22.502 0 00-15.133-4.513c-13.94.901-17.277 12.335-35.08 15.143a51.958 51.958 0 01-9.567.66l4.205-23.848z"/><path class="cls-18" d="M382.682 549.656l3.357-19.046a24.898 24.898 0 0015.225 4.006c13.922-.8 17.031-10.95 34.778-13.445a58.357 58.357 0 019.555-.586l-5.127 29.07z"/><path class="cls-22" d="M440.47 549.656h-57.788l2.662-15.096a24.948 24.948 0 0015.225 4.002c13.92-.8 17.03-10.952 34.776-13.44a58.097 58.097 0 019.555-.585z"/><path class="cls-23" d="M382.682 549.656l1.965-11.151a24.907 24.907 0 0015.225 4.006c13.922-.8 17.03-10.949 34.778-13.444a58.041 58.041 0 019.555-.587l-3.735 21.176z"/><path class="cls-13" d="M538.813 570.27h42.489a.443.443 0 01.443.442v13.36a.443.443 0 01-.443.444h-42.49a.443.443 0 01-.442-.443v-13.36a.443.443 0 01.443-.444zM743.068 570.27h42.489a.443.443 0 01.443.442v13.36a.443.443 0 01-.443.444h-42.489a.443.443 0 01-.443-.443v-13.36a.443.443 0 01.443-.444z"/><path class="cls-14" d="M552.088 531.342h216.285v2.788H552.088z"/><path class="cls-45" d="M703.56 470.279h64.813v7.263H703.56zM703.56 528.727h64.813v7.262H703.56z"/><path class="cls-21" d="M691.576 457.396h60.527v91.799h-60.527z"/><path class="cls-4" d="M694.885 460.705h53.91v85.181h-53.91z"/><path class="cls-18" d="M748.795 460.705v20.011c-4.091-2.55-8.784-4.609-14.86-4.212-12.855.843-14.088 11.506-30.233 14.128a46.654 46.654 0 01-8.817.616v-30.543z"/><path class="cls-22" d="M694.885 460.705h53.91v15.86c-4.097-2.55-8.79-4.602-14.86-4.205-12.855.843-14.088 11.506-30.233 14.121a46.408 46.408 0 01-8.817.616z"/><path class="cls-23" d="M748.795 460.705v11.717c-4.091-2.55-8.784-4.608-14.86-4.211-12.855.84-14.088 11.506-30.233 14.125a46.163 46.163 0 01-8.817.615v-22.246z"/><path class="cls-18" d="M694.885 545.886v-17.769a26.371 26.371 0 0014.861 3.74c12.855-.748 14.086-10.216 30.23-12.545a52.327 52.327 0 018.819-.545v27.12z"/><path class="cls-22" d="M748.795 545.886h-53.91v-14.083a26.412 26.412 0 0014.861 3.733c12.855-.748 14.086-10.215 30.23-12.536a52.117 52.117 0 018.819-.547z"/><path class="cls-23" d="M694.885 545.886v-10.404a26.36 26.36 0 0014.861 3.738c12.855-.746 14.086-10.215 30.23-12.541a52.117 52.117 0 018.819-.548v19.755z"/><path class="cls-14" d="M555.998 415.02h11.972v146.308h-11.972z"/><path class="cls-16" d="M552.144 415.02h11.974v146.308h-11.974z"/><path class="cls-14" d="M760.253 415.02h11.972v146.308h-11.972z"/><path class="cls-16" d="M756.399 415.02h11.974v146.308h-11.974z"/><path class="cls-16" d="M552.088 446.17h216.285v7.263H552.088z"/><path class="cls-17" d="M785.426 416.896a22.45 22.45 0 01-22.447 22.446H561.39a22.448 22.448 0 010-44.895H762.98a22.155 22.155 0 018.385 1.623 22.441 22.441 0 0114.062 20.826z"/><path class="cls-18" d="M774.138 406.873a22.454 22.454 0 01-22.45 22.448h-201.6a22.092 22.092 0 01-8.372-1.625 22.447 22.447 0 0119.675-33.25H762.98a22.155 22.155 0 018.385 1.624 22.245 22.245 0 012.774 10.803z"/><path class="cls-46" d="M611.908 527.816v-19.133a3.848 3.848 0 00-3.857-3.842h-21.892a3.848 3.848 0 00-3.857 3.842v19.133a4.996 4.996 0 003.79 4.835v1.4h-.952a2.832 2.832 0 100 5.664h23.941a2.843 2.843 0 002.827-2.825 2.832 2.832 0 00-2.827-2.84h-.95v-1.4a4.998 4.998 0 003.777-4.834zm-5.283-18.207a1.102 1.102 0 112.204 0v18.419a1.102 1.102 0 11-2.204 0zm-3.644 0a1.103 1.103 0 112.206 0v18.419a1.103 1.103 0 11-2.206 0zm-3.645 0a1.103 1.103 0 112.205 0v18.419a1.103 1.103 0 11-2.205 0zm-3.643 0a1.102 1.102 0 112.204 0v18.419a1.102 1.102 0 11-2.204 0zm-3.646 0a1.102 1.102 0 112.205 0v18.419a1.102 1.102 0 11-2.205 0zm-3.645 0a1.103 1.103 0 112.206 0v18.419a1.103 1.103 0 11-2.206 0zm-2.548 19.527a1.102 1.102 0 01-1.096-1.108v-18.42a1.103 1.103 0 112.206 0v18.42a1.106 1.106 0 01-1.11 1.108zm3.157 4.914v-1.242h16.2v1.242zM645.369 527.816v-19.133a3.848 3.848 0 00-3.857-3.842H619.62a3.85 3.85 0 00-3.858 3.842v19.133a4.996 4.996 0 003.79 4.835v1.4h-.95a2.832 2.832 0 100 5.664h23.942a2.843 2.843 0 002.825-2.825 2.832 2.832 0 00-2.825-2.84h-.951v-1.4a4.999 4.999 0 003.776-4.834zm-5.282-18.207a1.103 1.103 0 112.206 0v18.419a1.103 1.103 0 11-2.206 0zm-3.644 0a1.102 1.102 0 112.204 0v18.419a1.102 1.102 0 11-2.204 0zm-3.645 0a1.102 1.102 0 112.204 0v18.419a1.102 1.102 0 11-2.204 0zm-3.644 0a1.102 1.102 0 112.204 0v18.419a1.102 1.102 0 11-2.204 0zm-3.646 0a1.102 1.102 0 112.204 0v18.419a1.102 1.102 0 11-2.204 0zm-3.645 0a1.104 1.104 0 112.207 0v18.419a1.104 1.104 0 11-2.207 0zm-2.547 19.527a1.102 1.102 0 01-1.096-1.108v-18.42a1.102 1.102 0 112.204 0v18.42a1.105 1.105 0 01-1.108 1.108zm3.155 4.914v-1.242h16.203v1.242zM678.831 527.816v-19.133a3.85 3.85 0 00-3.857-3.842H653.08a3.848 3.848 0 00-3.855 3.842v19.133a4.996 4.996 0 003.788 4.835v1.4h-.95a2.832 2.832 0 100 5.664h23.941a2.843 2.843 0 002.827-2.825 2.832 2.832 0 00-2.827-2.84h-.95v-1.4a5 5 0 003.777-4.834zm-5.283-18.207a1.103 1.103 0 112.206 0v18.419a1.103 1.103 0 11-2.206 0zm-3.644 0a1.103 1.103 0 112.206 0v18.419a1.103 1.103 0 11-2.206 0zm-3.646 0a1.102 1.102 0 112.205 0v18.419a1.102 1.102 0 11-2.205 0zm-3.642 0a1.102 1.102 0 112.204 0v18.419a1.102 1.102 0 11-2.204 0zm-3.646 0a1.102 1.102 0 112.205 0v18.419a1.102 1.102 0 11-2.205 0zm-3.645 0a1.103 1.103 0 112.206 0v18.419a1.103 1.103 0 11-2.206 0zm-2.548 19.527a1.102 1.102 0 01-1.096-1.108v-18.42a1.102 1.102 0 112.204 0v18.42a1.105 1.105 0 01-1.108 1.108zm3.155 4.914v-1.242h16.203v1.242z"/><path class="cls-35" d="M611.114 527.75v-19.134a3.848 3.848 0 00-3.855-3.842h-21.894a3.85 3.85 0 00-3.856 3.842v19.133a4.996 4.996 0 003.79 4.835v1.4h-.95a2.832 2.832 0 100 5.664h23.939a2.84 2.84 0 002.826-2.825 2.831 2.831 0 00-2.826-2.84h-.949v-1.399a4.998 4.998 0 003.775-4.835zm-5.281-18.208a1.103 1.103 0 112.205 0v18.42a1.103 1.103 0 11-2.205 0zm-3.646 0a1.104 1.104 0 112.207 0v18.42a1.104 1.104 0 11-2.207 0zm-3.642 0a1.102 1.102 0 112.204 0v18.42a1.102 1.102 0 11-2.204 0zm-3.646 0a1.104 1.104 0 112.207 0v18.42a1.104 1.104 0 11-2.207 0zm-3.644 0a1.102 1.102 0 112.204 0v18.42a1.102 1.102 0 11-2.204 0zm-3.645 0a1.102 1.102 0 112.204 0v18.42a1.102 1.102 0 11-2.204 0zm-2.547 19.527a1.102 1.102 0 01-1.096-1.108v-18.42a1.102 1.102 0 112.204 0v18.42a1.107 1.107 0 01-1.108 1.108zm3.155 4.914v-1.242h16.203v1.242zM644.575 527.75v-19.134a3.848 3.848 0 00-3.854-3.842h-21.895a3.848 3.848 0 00-3.855 3.842v19.133a4.996 4.996 0 003.79 4.835v1.4h-.952a2.832 2.832 0 100 5.664h23.942a2.838 2.838 0 002.824-2.825 2.83 2.83 0 00-2.824-2.84h-.95v-1.399a4.998 4.998 0 003.774-4.835zm-5.28-18.208a1.102 1.102 0 112.204 0v18.42a1.102 1.102 0 11-2.204 0zm-3.646 0a1.103 1.103 0 112.206 0v18.42a1.103 1.103 0 11-2.206 0zm-3.644 0a1.102 1.102 0 112.205 0v18.42a1.102 1.102 0 11-2.205 0zm-3.645 0a1.104 1.104 0 112.207 0v18.42a1.104 1.104 0 11-2.207 0zm-3.643 0a1.102 1.102 0 112.205 0v18.42a1.102 1.102 0 11-2.205 0zm-3.645 0a1.102 1.102 0 112.204 0v18.42a1.102 1.102 0 11-2.204 0zm-2.548 19.527a1.102 1.102 0 01-1.096-1.108v-18.42a1.102 1.102 0 112.204 0v18.42a1.106 1.106 0 01-1.108 1.108zm3.155 4.914v-1.242h16.203v1.242zM678.039 527.75v-19.134a3.85 3.85 0 00-3.857-3.842h-21.894a3.849 3.849 0 00-3.856 3.842v19.133a4.996 4.996 0 003.79 4.835v1.4h-.95a2.832 2.832 0 100 5.664h23.941a2.843 2.843 0 002.826-2.825 2.832 2.832 0 00-2.826-2.84h-.952v-1.399a4.998 4.998 0 003.778-4.835zm-5.283-18.208a1.102 1.102 0 112.204 0v18.42a1.102 1.102 0 11-2.204 0zm-3.646 0a1.104 1.104 0 112.207 0v18.42a1.104 1.104 0 11-2.207 0zm-3.642 0a1.102 1.102 0 112.204 0v18.42a1.102 1.102 0 11-2.204 0zm-3.646 0a1.103 1.103 0 112.206 0v18.42a1.103 1.103 0 11-2.206 0zm-3.644 0a1.102 1.102 0 112.204 0v18.42a1.102 1.102 0 11-2.204 0zm-3.645 0a1.104 1.104 0 112.207 0v18.42a1.104 1.104 0 11-2.207 0zm-2.549 19.527a1.103 1.103 0 01-1.095-1.108v-18.42a1.103 1.103 0 112.205 0v18.42a1.107 1.107 0 01-1.11 1.108zm3.157 4.914v-1.242h16.201v1.242z"/><path class="cls-14" d="M547.847 561.329h28.161a.556.556 0 01.557.556v16.77a.556.556 0 01-.556.555h-28.162a.556.556 0 01-.556-.556v-16.77a.556.556 0 01.556-.555z"/><path class="cls-16" d="M544.109 561.329h28.158a.556.556 0 01.556.556v16.77a.556.556 0 01-.556.555h-28.158a.556.556 0 01-.557-.556v-16.77a.556.556 0 01.557-.555z"/><path class="cls-14" d="M752.104 561.329h28.158a.556.556 0 01.557.556v16.77a.556.556 0 01-.557.555h-28.158a.556.556 0 01-.556-.556v-16.77a.556.556 0 01.556-.555z"/><path class="cls-16" d="M748.364 561.329h28.158a.556.556 0 01.557.556v16.77a.556.556 0 01-.557.555h-28.158a.556.556 0 01-.556-.556v-16.77a.556.556 0 01.556-.555zM714.463 411.592H559.56a5.563 5.563 0 010-11.126h154.902a5.563 5.563 0 010 11.126z"/></g></g></svg>